# File created by Blade
# Date/Time:  Tue Jan 27 18:01:49 2015
# Frame Rate: 120.000 fps
#------------------------------------------------------
:FULLY-SPECIFIED
:DEGREES
2888
root -1.969828 31.946960 -6.515168 5.943548 16.094402 3.511197
Spine -4.646331 -16.171303 -5.298147
Head -7.379087 -50.409351 1.978733
LeftShoulder -12.633474 15.209630 7.866206
LeftArm 21.662871 42.079788 -73.514296
LeftForeArm -2.420345 0.000000 12.295237
LeftHand -11.200635 -0.000000 -5.020197
LeftHandThumb1 -26.253704 0.000000 33.147579
RightShoulder -16.451525 16.158032 -52.414874
RightArm 26.014347 15.980929 3.259201
RightForeArm -34.693371 -0.000000 99.382081
RightHand -9.488599 -0.000000 15.444635
RightHandThumb1 -24.326973 -0.000000 -32.862282
LeftUpLeg -2.463426 -4.501128 0.612708
LeftLeg 0.341801 -0.000000 -0.000000
LeftFoot -13.654991 12.389852 -24.621557
LeftToeBase 8.760283 -0.000000 -0.000000
RightUpLeg 2.459182 -8.346635 -2.080554
RightLeg -3.075942 -0.000000 0.000000
RightFoot -16.246484 -18.440700 10.789333
RightToeBase 5.371695 -0.000000 -0.000000
2889
root -1.974655 31.947834 -6.519873 5.920996 16.017479 3.485102
Spine -4.563206 -16.150362 -5.387567
Head -7.606195 -50.486085 2.311481
LeftShoulder -12.714228 15.259838 7.777275
LeftArm 21.810063 42.041979 -73.321603
LeftForeArm -2.425700 0.000000 12.329307
LeftHand -11.196744 -0.000000 -4.948726
LeftHandThumb1 -26.253704 0.000000 33.147579
RightShoulder -16.348288 16.063030 -52.445289
RightArm 26.025591 14.698461 2.898315
RightForeArm -35.559828 -0.000000 99.082946
RightHand -9.384931 -0.000000 15.583878
RightHandThumb1 -24.326973 -0.000000 -32.862282
LeftUpLeg -2.469056 -4.476034 0.635306
LeftLeg 0.384463 -0.000000 -0.000000
LeftFoot -13.677795 12.433646 -24.604943
LeftToeBase 8.724135 -0.000000 -0.000000
RightUpLeg 2.439100 -8.307773 -2.056889
RightLeg -3.050414 -0.000000 0.000000
RightFoot -16.225097 -18.407183 10.790326
RightToeBase 5.457699 -0.000000 -0.000000
2890
root -1.980276 31.949141 -6.525413 5.916466 15.943133 3.451739
Spine -4.523965 -16.118582 -5.466677
Head -7.757785 -50.548800 2.629264
LeftShoulder -12.725185 15.324751 7.708278
LeftArm 21.924726 41.989821 -73.151874
LeftForeArm -2.454286 0.000000 12.372292
LeftHand -11.269620 -0.000000 -4.914544
LeftHandThumb1 -26.253704 0.000000 33.147579
RightShoulder -16.214644 15.937484 -52.408497
RightArm 26.052434 13.622017 2.702371
RightForeArm -36.191887 -0.000000 98.707646
RightHand -9.098943 -0.000000 15.781992
RightHandThumb1 -24.326973 -0.000000 -32.862282
LeftUpLeg -2.494077 -4.476432 0.670491
LeftLeg 0.417048 -0.000000 -0.000000
LeftFoot -13.727999 12.502013 -24.642175
LeftToeBase 8.711548 -0.000000 -0.000000
RightUpLeg 2.392560 -8.296277 -2.021875
RightLeg -3.015377 -0.000000 0.000000
RightFoot -16.199743 -18.348783 10.778058
RightToeBase 5.488837 -0.000000 -0.000000
2891
root -1.984919 31.949820 -6.531630 5.913607 15.871380 3.412000
Spine -4.475803 -16.085664 -5.527387
Head -7.985843 -50.611376 2.986135
LeftShoulder -12.734968 15.313979 7.645927
LeftArm 21.953247 41.946558 -73.047220
LeftForeArm -2.473349 -0.000000 12.404288
LeftHand -11.324514 0.000000 -4.861550
LeftHandThumb1 -26.253704 0.000000 33.147579
RightShoulder -16.044532 15.804496 -52.349349
RightArm 25.971090 12.758921 2.591156
RightForeArm -36.630017 -0.000000 98.354814
RightHand -8.992046 -0.000000 15.937808
RightHandThumb1 -24.326973 -0.000000 -32.862282
LeftUpLeg -2.527390 -4.491422 0.709534
LeftLeg 0.462926 -0.000000 -0.000000
LeftFoot -13.799257 12.569432 -24.684188
LeftToeBase 8.724164 -0.000000 -0.000000
RightUpLeg 2.347540 -8.301064 -1.981676
RightLeg -2.990326 -0.000000 0.000000
RightFoot -16.169514 -18.286894 10.738269
RightToeBase 5.362485 -0.000000 -0.000000
2892
root -1.988757 31.950167 -6.538612 5.930485 15.811907 3.387950
Spine -4.460099 -16.081779 -5.587675
Head -8.163947 -50.567880 3.329716
LeftShoulder -12.746003 15.339754 7.574617
LeftArm 22.023730 41.931481 -72.901197
LeftForeArm -2.508052 -0.000000 12.431989
LeftHand -11.350190 -0.000000 -4.823344
LeftHandThumb1 -26.253704 0.000000 33.147579
RightShoulder -15.867696 15.844686 -52.312988
RightArm 25.870576 11.834101 2.615150
RightForeArm -36.935752 0.000000 97.968334
RightHand -8.895308 0.000000 15.668701
RightHandThumb1 -24.326973 -0.000000 -32.862282
LeftUpLeg -2.579503 -4.500789 0.733471
LeftLeg 0.508275 -0.000000 -0.000000
LeftFoot -13.838634 12.631188 -24.664121
LeftToeBase 8.716788 -0.000000 -0.000000
RightUpLeg 2.283987 -8.299037 -1.956906
RightLeg -2.955941 -0.000000 0.000000
RightFoot -16.155373 -18.229900 10.719948
RightToeBase 5.405397 -0.000000 -0.000000
2893
root -1.993249 31.950455 -6.544400 5.940715 15.762640 3.360986
Spine -4.413803 -16.069319 -5.662078
Head -8.355618 -50.655187 3.586059
LeftShoulder -12.764971 15.347175 7.525436
LeftArm 22.099243 41.941489 -72.753754
LeftForeArm -2.556890 -0.000000 12.465600
LeftHand -11.351945 -0.000000 -4.795132
LeftHandThumb1 -26.253704 0.000000 33.147579
RightShoulder -15.732843 15.886983 -52.245797
RightArm 25.760432 11.040728 2.708872
RightForeArm -37.259630 -0.000000 97.597827
RightHand -8.910467 0.000000 15.368155
RightHandThumb1 -24.326973 -0.000000 -32.862282
LeftUpLeg -2.618245 -4.524738 0.761268
LeftLeg 0.541265 -0.000000 -0.000000
LeftFoot -13.883562 12.704063 -24.678283
LeftToeBase 8.732159 -0.000000 -0.000000
RightUpLeg 2.241122 -8.327664 -1.925917
RightLeg -2.950988 -0.000000 0.000000
RightFoot -16.114126 -18.168560 10.692182
RightToeBase 5.485523 -0.000000 -0.000000
2894
root -1.995887 31.952023 -6.552018 5.969960 15.719334 3.335228
Spine -4.395445 -16.054649 -5.714797
Head -8.486600 -50.754018 3.677604
LeftShoulder -12.778306 15.380331 7.461096
LeftArm 22.228749 41.953167 -72.573527
LeftForeArm -2.588530 -0.000000 12.482010
LeftHand -11.392157 -0.000000 -4.872867
LeftHandThumb1 -26.253704 0.000000 33.147579
RightShoulder -15.556181 15.817336 -52.111828
RightArm 25.596135 10.526426 2.898174
RightForeArm -37.738489 0.000000 97.307245
RightHand -8.902566 -0.000000 15.438775
RightHandThumb1 -24.326973 -0.000000 -32.862282
LeftUpLeg -2.683469 -4.541235 0.786039
LeftLeg 0.582752 -0.000000 -0.000000
LeftFoot -13.922723 12.766300 -24.681899
LeftToeBase 8.721555 -0.000000 -0.000000
RightUpLeg 2.180953 -8.344138 -1.899107
RightLeg -2.949148 -0.000000 0.000000
RightFoot -16.075260 -18.088777 10.769262
RightToeBase 5.271690 -0.000000 -0.000000
2895
root -1.999464 31.952504 -6.558889 6.003479 15.680610 3.309668
Spine -4.370711 -16.030399 -5.779832
Head -8.643446 -50.811656 3.837056
LeftShoulder -12.787339 15.374035 7.449570
LeftArm 22.325933 42.016569 -72.449443
LeftForeArm -2.586017 -0.000000 12.467685
LeftHand -11.369725 -0.000000 -4.829658
LeftHandThumb1 -26.253704 0.000000 33.147579
RightShoulder -15.423795 15.800179 -51.967841
RightArm 25.440244 10.031453 3.126126
RightForeArm -38.205542 -0.000000 97.008688
RightHand -8.922702 0.000000 15.247072
RightHandThumb1 -24.326973 -0.000000 -32.862282
LeftUpLeg -2.742791 -4.560693 0.814968
LeftLeg 0.603924 -0.000000 -0.000000
LeftFoot -13.953498 12.815855 -24.699171
LeftToeBase 8.750750 -0.000000 -0.000000
RightUpLeg 2.120531 -8.354270 -1.868226
RightLeg -2.950355 -0.000000 0.000000
RightFoot -16.049694 -18.067258 10.689206
RightToeBase 5.384441 -0.000000 -0.000000
2896
root -2.001407 31.952984 -6.565326 6.039035 15.639543 3.284780
Spine -4.369509 -16.027268 -5.811334
Head -8.698509 -50.715051 3.867576
LeftShoulder -12.805027 15.379283 7.416470
LeftArm 22.402388 42.043803 -72.337189
LeftForeArm -2.608614 0.000000 12.468619
LeftHand -11.365776 -0.000000 -4.867421
LeftHandThumb1 -26.253704 0.000000 33.147579
RightShoulder -15.257517 15.922523 -51.877763
RightArm 25.257928 9.517446 3.349318
RightForeArm -38.854523 -0.000000 96.758221
RightHand -8.927801 0.000000 15.416264
RightHandThumb1 -24.326973 -0.000000 -32.862282
LeftUpLeg -2.800636 -4.555586 0.841157
LeftLeg 0.621163 -0.000000 -0.000000
LeftFoot -13.983307 12.840677 -24.724606
LeftToeBase 8.737757 -0.000000 -0.000000
RightUpLeg 2.071035 -8.392366 -1.840171
RightLeg -2.979964 -0.000000 0.000000
RightFoot -15.988550 -17.999699 10.664194
RightToeBase 5.421257 -0.000000 -0.000000
2897
root -2.002778 31.954194 -6.572760 6.101436 15.601767 3.273000
Spine -4.399104 -16.011317 -5.847198
Head -8.775622 -50.591906 3.885156
LeftShoulder -12.817390 15.426533 7.385549
LeftArm 22.537939 42.071508 -72.191234
LeftForeArm -2.613101 -0.000000 12.466751
LeftHand -11.346577 -0.000000 -4.908784
LeftHandThumb1 -26.253704 0.000000 33.147579
RightShoulder -15.112911 15.928751 -51.711435
RightArm 25.124764 9.164655 3.548175
RightForeArm -39.234611 -0.000000 96.461464
RightHand -9.110769 -0.000000 15.103832
RightHandThumb1 -24.326973 -0.000000 -32.862282
LeftUpLeg -2.879305 -4.555288 0.852344
LeftLeg 0.627285 -0.000000 -0.000000
LeftFoot -13.976831 12.892399 -24.705575
LeftToeBase 8.717995 -0.000000 -0.000000
RightUpLeg 1.991683 -8.420331 -1.824456
RightLeg -2.994623 -0.000000 0.000000
RightFoot -15.950909 -17.934799 10.650955
RightToeBase 5.349003 -0.000000 -0.000000
